<mxfile host="app.diagrams.net" modified="2023-11-30T00:03:59.291Z" agent="Mozilla/5.0 (Windows NT 10.0; Win64; x64) AppleWebKit/537.36 (KHTML, like Gecko) Chrome/119.0.0.0 Safari/537.36" etag="P_A8UwuxE9OepEa2Kf9q" version="22.1.5" type="device">
  <diagram name="Page-1" id="uKZ0nMDTJCLTwgv4MeH_">
    <mxGraphModel dx="882" dy="522" grid="1" gridSize="10" guides="1" tooltips="1" connect="1" arrows="1" fold="1" page="1" pageScale="1" pageWidth="850" pageHeight="1100" math="0" shadow="0">
      <root>
        <mxCell id="0" />
        <mxCell id="1" parent="0" />
        <mxCell id="avkrpJQgTPZdTu2OpOeT-20" value="GPIO" style="rounded=1;whiteSpace=wrap;html=1;" vertex="1" parent="1">
          <mxGeometry x="590" y="70" width="50" height="60" as="geometry" />
        </mxCell>
        <mxCell id="avkrpJQgTPZdTu2OpOeT-2" value="&lt;font style=&quot;font-size: 20px;&quot;&gt;RPi&lt;/font&gt;" style="rounded=0;whiteSpace=wrap;html=1;" vertex="1" parent="1">
          <mxGeometry x="160" y="120" width="150" height="200" as="geometry" />
        </mxCell>
        <mxCell id="avkrpJQgTPZdTu2OpOeT-3" value="" style="endArrow=classic;html=1;rounded=0;" edge="1" parent="1">
          <mxGeometry width="50" height="50" relative="1" as="geometry">
            <mxPoint x="310" y="160" as="sourcePoint" />
            <mxPoint x="480" y="160" as="targetPoint" />
          </mxGeometry>
        </mxCell>
        <mxCell id="avkrpJQgTPZdTu2OpOeT-4" value="&lt;font style=&quot;font-size: 20px;&quot;&gt;STM&lt;/font&gt;" style="rounded=0;whiteSpace=wrap;html=1;" vertex="1" parent="1">
          <mxGeometry x="480" y="110" width="210" height="300" as="geometry" />
        </mxCell>
        <mxCell id="avkrpJQgTPZdTu2OpOeT-5" value="" style="endArrow=classic;html=1;rounded=0;entryX=0.003;entryY=0.296;entryDx=0;entryDy=0;entryPerimeter=0;" edge="1" parent="1" target="avkrpJQgTPZdTu2OpOeT-4">
          <mxGeometry width="50" height="50" relative="1" as="geometry">
            <mxPoint x="310" y="200" as="sourcePoint" />
            <mxPoint x="410" y="200" as="targetPoint" />
          </mxGeometry>
        </mxCell>
        <mxCell id="avkrpJQgTPZdTu2OpOeT-6" value="Analog Pin 1 (PA2)" style="text;html=1;align=center;verticalAlign=middle;resizable=0;points=[];autosize=1;strokeColor=none;fillColor=none;" vertex="1" parent="1">
          <mxGeometry x="330" y="133" width="120" height="30" as="geometry" />
        </mxCell>
        <mxCell id="avkrpJQgTPZdTu2OpOeT-7" value="Analog Pin 2 (PA3)" style="text;html=1;align=center;verticalAlign=middle;resizable=0;points=[];autosize=1;strokeColor=none;fillColor=none;" vertex="1" parent="1">
          <mxGeometry x="330" y="175" width="120" height="30" as="geometry" />
        </mxCell>
        <mxCell id="avkrpJQgTPZdTu2OpOeT-8" value="&lt;font style=&quot;font-size: 16px;&quot;&gt;CAN&lt;/font&gt;" style="rounded=0;whiteSpace=wrap;html=1;" vertex="1" parent="1">
          <mxGeometry x="552.5" y="410" width="65" height="60" as="geometry" />
        </mxCell>
        <mxCell id="avkrpJQgTPZdTu2OpOeT-9" value="&lt;font style=&quot;font-size: 16px;&quot;&gt;CAN&lt;/font&gt;" style="rounded=0;whiteSpace=wrap;html=1;" vertex="1" parent="1">
          <mxGeometry x="202.5" y="320" width="65" height="60" as="geometry" />
        </mxCell>
        <mxCell id="avkrpJQgTPZdTu2OpOeT-13" value="" style="endArrow=none;html=1;rounded=0;" edge="1" parent="1">
          <mxGeometry width="50" height="50" relative="1" as="geometry">
            <mxPoint x="260" y="440" as="sourcePoint" />
            <mxPoint x="260" y="380" as="targetPoint" />
          </mxGeometry>
        </mxCell>
        <mxCell id="avkrpJQgTPZdTu2OpOeT-14" value="" style="endArrow=none;html=1;rounded=0;" edge="1" parent="1" target="avkrpJQgTPZdTu2OpOeT-8">
          <mxGeometry width="50" height="50" relative="1" as="geometry">
            <mxPoint x="260" y="440" as="sourcePoint" />
            <mxPoint x="550" y="440" as="targetPoint" />
          </mxGeometry>
        </mxCell>
        <mxCell id="avkrpJQgTPZdTu2OpOeT-15" value="" style="endArrow=none;html=1;rounded=0;" edge="1" parent="1">
          <mxGeometry width="50" height="50" relative="1" as="geometry">
            <mxPoint x="220" y="460" as="sourcePoint" />
            <mxPoint x="220" y="380" as="targetPoint" />
          </mxGeometry>
        </mxCell>
        <mxCell id="avkrpJQgTPZdTu2OpOeT-17" value="" style="endArrow=none;html=1;rounded=0;entryX=0.017;entryY=0.87;entryDx=0;entryDy=0;entryPerimeter=0;" edge="1" parent="1" target="avkrpJQgTPZdTu2OpOeT-8">
          <mxGeometry width="50" height="50" relative="1" as="geometry">
            <mxPoint x="220" y="460" as="sourcePoint" />
            <mxPoint x="513" y="460" as="targetPoint" />
          </mxGeometry>
        </mxCell>
        <mxCell id="avkrpJQgTPZdTu2OpOeT-18" value="CAN lo" style="text;html=1;strokeColor=none;fillColor=none;align=center;verticalAlign=middle;whiteSpace=wrap;rounded=0;" vertex="1" parent="1">
          <mxGeometry x="360" y="410" width="60" height="30" as="geometry" />
        </mxCell>
        <mxCell id="avkrpJQgTPZdTu2OpOeT-19" value="CAN hi" style="text;html=1;strokeColor=none;fillColor=none;align=center;verticalAlign=middle;whiteSpace=wrap;rounded=0;" vertex="1" parent="1">
          <mxGeometry x="365" y="470" width="60" height="30" as="geometry" />
        </mxCell>
        <mxCell id="avkrpJQgTPZdTu2OpOeT-21" value="BrakeLight (PC3)" style="text;html=1;strokeColor=none;fillColor=none;align=center;verticalAlign=middle;whiteSpace=wrap;rounded=0;" vertex="1" parent="1">
          <mxGeometry x="585" y="40" width="60" height="30" as="geometry" />
        </mxCell>
      </root>
    </mxGraphModel>
  </diagram>
</mxfile>
